<svg xmlns="http://www.w3.org/2000/svg" viewBox="0 0 32 40" x="0px" y="0px"><g><path d="M27,9H5a2,2,0,0,0-2,2V25a2,2,0,0,0,2,2H27a2,2,0,0,0,2-2V11A2,2,0,0,0,27,9Zm-2.46,5.82-8,5a1,1,0,0,1-1,0c-7.92-4.87-8.09-5-8.2-5.15A1,1,0,0,1,8.64,13.2c.44.31,4.53,2.84,7.37,4.59l7.47-4.67A1,1,0,0,1,24.54,14.82Z"/></g><text x="0" y="47" fill="#000000" font-size="5px" font-weight="bold" font-family="'Helvetica Neue', Helvetica, Arial-Unicode, Arial, Sans-serif">Created by Zky Icon</text><text x="0" y="52" fill="#000000" font-size="5px" font-weight="bold" font-family="'Helvetica Neue', Helvetica, Arial-Unicode, Arial, Sans-serif">from the Noun Project</text></svg>