<svg xmlns="http://www.w3.org/2000/svg" xmlns:xlink="http://www.w3.org/1999/xlink" version="1.1" x="0px" y="0px" viewBox="0 0 100 125" style="enable-background:new 0 0 100 100;" xml:space="preserve"><g><path d="M48.5,87.2c0.4,0.5,0.9,0.7,1.5,0.7s1.2-0.3,1.5-0.7c1.1-1.3,26.4-32.3,26.4-47.2c0-15.4-12.5-27.9-27.9-27.9   S22.1,24.6,22.1,40C22.1,54.9,47.4,85.9,48.5,87.2z M50,26.9c7.2,0,13.1,5.9,13.1,13.1c0,7.2-5.9,13.1-13.1,13.1S36.9,47.2,36.9,40   C36.9,32.8,42.8,26.9,50,26.9z"/><path d="M50,49.1c5,0,9.1-4.1,9.1-9.1c0-5-4.1-9.1-9.1-9.1S40.9,35,40.9,40C40.9,45,45,49.1,50,49.1z"/></g><text x="0" y="115" fill="#000000" font-size="5px" font-weight="bold" font-family="'Helvetica Neue', Helvetica, Arial-Unicode, Arial, Sans-serif">Created by ahan</text><text x="0" y="120" fill="#000000" font-size="5px" font-weight="bold" font-family="'Helvetica Neue', Helvetica, Arial-Unicode, Arial, Sans-serif">from the Noun Project</text></svg>