<svg xmlns="http://www.w3.org/2000/svg" xmlns:xlink="http://www.w3.org/1999/xlink" version="1.1" x="0px" y="0px" viewBox="0 0 100 125" style="enable-background:new 0 0 100 100;" xml:space="preserve"><path d="M95,24.664c0-3.375-2.746-6.122-6.122-6.122H11.122C7.746,18.542,5,21.288,5,24.664v50.673c0,1.685,0.684,3.212,1.789,4.32  c0.003,0.003,0.004,0.007,0.007,0.01c0.004,0.004,0.008,0.005,0.012,0.008c1.108,1.101,2.632,1.784,4.314,1.784h77.756  c1.681,0,3.205-0.681,4.312-1.782c0.004-0.004,0.01-0.005,0.014-0.009c0.004-0.004,0.005-0.009,0.008-0.012  C94.316,78.547,95,77.02,95,75.336V24.664z M63.034,47.366l28.718-23.921C91.911,23.82,92,24.232,92,24.664v50.673  c0,0.303-0.057,0.59-0.138,0.867L63.034,47.366z M88.878,21.542c0.145,0,0.283,0.024,0.422,0.043L51.618,52.97  c-0.938,0.782-2.298,0.782-3.237,0L10.7,21.584c0.139-0.019,0.277-0.043,0.422-0.043H88.878z M8.138,76.204  C8.057,75.927,8,75.639,8,75.336V24.664c0-0.432,0.089-0.844,0.248-1.218l28.724,23.925L8.138,76.204z M11.122,78.458  c-0.301,0-0.586-0.056-0.861-0.136l29.024-29.024l7.174,5.976c1.026,0.855,2.283,1.282,3.54,1.282s2.514-0.427,3.539-1.282  l7.18-5.981l29.02,29.029c-0.275,0.08-0.56,0.136-0.861,0.136H11.122z"/><text x="0" y="115" fill="#000000" font-size="5px" font-weight="bold" font-family="'Helvetica Neue', Helvetica, Arial-Unicode, Arial, Sans-serif">Created by Maxim Kulikov</text><text x="0" y="120" fill="#000000" font-size="5px" font-weight="bold" font-family="'Helvetica Neue', Helvetica, Arial-Unicode, Arial, Sans-serif">from the Noun Project</text></svg>